<?xml version="1.0" encoding="UTF-8" standalone="no"?>
<!-- Created with Inkscape (http://www.inkscape.org/) -->

<svg
   version="1.1"
   id="svg1"
   width="100%"
   height="100%"
   viewBox="0 0 14.756233 12.721333"
   xmlns:xlink="http://www.w3.org/1999/xlink"
   xmlns="http://www.w3.org/2000/svg"
   xmlns:svg="http://www.w3.org/2000/svg">
  <defs
     id="defs1">
  </defs>
  <g
     id="g1"
     transform="translate(-100.99175,-80.445601)">
    <path
       id="path830"
       d="m 0,0 c -0.915,0.182 -1.464,1.024 -1.278,1.958 l 1.159,5.826 C 0.073,8.749 0.995,9.506 1.98,9.506 H 8.082 C 8.203,9.506 8.323,9.495 8.439,9.472 9.354,9.29 9.903,8.448 9.717,7.513 L 8.559,1.688 C 8.367,0.722 7.445,-0.035 6.46,-0.035 H 0.357 C 0.236,-0.035 0.116,-0.023 0,0"
       style="fill:#000000;fill-opacity:1;fill-rule:nonzero;stroke:none"
       transform="matrix(1.3333333,0,0,-1.3333333,102.74387,93.120267)" />
    <path
       id="path831"
       d="m 0,0 c -0.127,-0.641 -0.766,-1.165 -1.42,-1.165 h -6.102 c -0.653,0 -1.083,0.524 -0.956,1.165 l 1.159,5.825 C -7.192,6.466 -6.553,6.99 -5.9,6.99 h 6.103 c 0.653,0 1.083,-0.524 0.956,-1.165 z"
       style="fill:#a0a69c;fill-opacity:1;fill-rule:nonzero;stroke:none"
       transform="matrix(1.3333333,0,0,-1.3333333,113.24947,90.6892)" />
    <path
       id="path832"
       d="m 0,0 c -0.213,0.042 -0.21,0.224 -0.189,0.329 l 1.158,5.825 c 0.064,0.318 0.416,0.607 0.74,0.607 H 7.811 C 7.842,6.761 7.872,6.759 7.899,6.753 8.112,6.711 8.109,6.529 8.088,6.424 L 6.929,0.599 C 6.866,0.281 6.513,-0.008 6.189,-0.008 H 0.087 C 0.056,-0.008 0.027,-0.005 0,0"
       style="fill:#c7d1c3;fill-opacity:1;fill-rule:nonzero;stroke:none"
       transform="matrix(1.3333333,0,0,-1.3333333,103.1044,91.308)" />
    <path
       id="path833"
       d="M 0,0 C -0.039,-0.283 -0.147,-0.543 -0.307,-0.765 L 0.398,-1.35 c 0.274,0.361 0.458,0.793 0.515,1.265 z M -0.327,1.258 C -0.164,1.043 -0.052,0.788 -0.006,0.51 L 0.907,0.595 C 0.842,1.061 0.655,1.489 0.378,1.844 Z m -1.619,-2.71 c -0.284,0.043 -0.544,0.156 -0.764,0.321 l -0.584,-0.706 c 0.359,-0.279 0.791,-0.466 1.263,-0.528 z m 1.279,0.322 c -0.22,-0.166 -0.481,-0.279 -0.765,-0.322 l 0.084,-0.913 c 0.474,0.062 0.907,0.25 1.267,0.53 z m -2.021,2.745 c 0.216,0.156 0.469,0.263 0.744,0.305 L -2.03,2.833 C -2.493,2.772 -2.918,2.591 -3.272,2.321 Z m 1.34,1.218 -0.086,-0.913 c 0.275,-0.042 0.529,-0.149 0.746,-0.306 l 0.585,0.705 C -0.459,2.59 -0.884,2.772 -1.348,2.833 M -3.372,0.512 c 0.046,0.276 0.158,0.53 0.32,0.745 L -3.758,1.841 C -4.034,1.487 -4.22,1.062 -4.285,0.598 Z m -0.406,-1.859 c -0.273,0.359 -0.455,0.789 -0.513,1.259 l 0.913,0.086 c 0.039,-0.281 0.146,-0.541 0.306,-0.761 z"
       style="fill:#70766b;fill-opacity:1;fill-rule:nonzero;stroke:none"
       transform="matrix(1.3333333,0,0,-1.3333333,110.6224,87.117333)" />
  </g>
</svg>
