<?xml version="1.0" encoding="UTF-8" standalone="no"?>
<!-- Created with Inkscape (http://www.inkscape.org/) -->

<svg
   version="1.1"
   id="svg1"
   width="100%"
   height="100%"
   viewBox="0 0 14.757111 12.721333"
   xmlns:xlink="http://www.w3.org/1999/xlink"
   xmlns="http://www.w3.org/2000/svg"
   xmlns:svg="http://www.w3.org/2000/svg">
  <defs
     id="defs1">
  </defs>
  <g
     id="g1"
     transform="translate(-348.74508,-80.445601)">
    <path
       id="path805"
       d="m 0,0 c -0.915,0.182 -1.464,1.024 -1.278,1.958 l 1.159,5.825 C 0.073,8.749 0.995,9.506 1.98,9.506 H 8.082 C 8.203,9.506 8.323,9.494 8.439,9.471 9.354,9.289 9.903,8.448 9.718,7.513 L 8.559,1.688 C 8.367,0.722 7.445,-0.035 6.46,-0.035 H 0.358 C 0.236,-0.035 0.116,-0.023 0,0"
       style="fill:#000000;fill-opacity:1;fill-rule:nonzero;stroke:none"
       transform="matrix(1.3333333,0,0,-1.3333333,350.4972,93.120267)" />
    <path
       id="path806"
       d="m 0,0 c -0.127,-0.641 -0.766,-1.165 -1.42,-1.165 h -6.102 c -0.653,0 -1.083,0.524 -0.956,1.165 l 1.159,5.825 C -7.192,6.466 -6.553,6.99 -5.9,6.99 h 6.103 c 0.653,0 1.083,-0.524 0.956,-1.165 z"
       style="fill:#56bfc5;fill-opacity:1;fill-rule:nonzero;stroke:none"
       transform="matrix(1.3333333,0,0,-1.3333333,361.00293,90.689467)" />
    <path
       id="path807"
       d="m 0,0 c -0.213,0.042 -0.21,0.224 -0.189,0.329 l 1.158,5.825 c 0.064,0.318 0.416,0.607 0.74,0.607 h 6.102 c 0.031,0 0.06,-0.003 0.087,-0.008 C 8.112,6.711 8.109,6.529 8.088,6.424 L 6.929,0.599 C 6.866,0.281 6.513,-0.008 6.189,-0.008 H 0.087 C 0.056,-0.008 0.027,-0.005 0,0"
       style="fill:#198393;fill-opacity:1;fill-rule:nonzero;stroke:none"
       transform="matrix(1.3333333,0,0,-1.3333333,350.85773,91.308)" />
    <path
       id="path808"
       d="M 0,0 -0.187,0.252 -0.73,-0.112 -1.776,0.539 -0.73,1.19 -0.187,0.827 0,1.078 -0.408,1.391 0.167,1.749 -0.02,2.073 -0.621,1.751 -0.688,2.27 -0.999,2.234 -0.957,1.572 -2.039,0.994 -2.078,2.173 -1.489,2.471 -1.615,2.757 -2.091,2.553 -2.115,3.282 H -2.489 L -2.513,2.553 -2.989,2.757 -3.115,2.471 -2.525,2.173 -2.564,0.994 -3.647,1.572 -3.604,2.234 -3.916,2.27 -3.982,1.751 -4.584,2.073 -4.771,1.749 -4.196,1.391 -4.604,1.078 -4.417,0.827 -3.874,1.191 -2.827,0.539 -3.874,-0.112 -4.417,0.252 -4.604,0 l 0.408,-0.313 -0.575,-0.357 0.187,-0.324 0.602,0.321 0.066,-0.518 0.312,0.036 -0.043,0.661 1.083,0.578 0.039,-1.179 -0.59,-0.297 0.126,-0.286 0.476,0.203 0.024,-0.729 h 0.374 l 0.024,0.729 0.476,-0.203 0.126,0.286 -0.589,0.297 0.039,1.179 1.082,-0.578 -0.042,-0.662 0.311,-0.035 0.067,0.518 0.601,-0.321 0.187,0.324 -0.575,0.357 z"
       style="fill:#c4e5e7;fill-opacity:1;fill-rule:nonzero;stroke:none"
       transform="matrix(1.3333333,0,0,-1.3333333,359.19253,87.525067)" />
  </g>
</svg>
