<?xml version="1.0" encoding="UTF-8" standalone="no"?>
<!-- Created with Inkscape (http://www.inkscape.org/) -->

<svg
   version="1.1"
   id="svg1"
   width="100%"
   height="100%"
   viewBox="0 0 14.757111 12.721333"
   xmlns:xlink="http://www.w3.org/1999/xlink"
   xmlns="http://www.w3.org/2000/svg"
   xmlns:svg="http://www.w3.org/2000/svg">
  <defs
     id="defs1">
  </defs>
  <g
     id="g1"
     transform="translate(-424.97695,-80.445601)">
    <path
       id="path785"
       d="m 0,0 c -0.915,0.182 -1.464,1.024 -1.278,1.958 l 1.159,5.825 C 0.073,8.749 0.995,9.506 1.98,9.506 H 8.082 C 8.203,9.506 8.323,9.494 8.439,9.471 9.354,9.289 9.903,8.448 9.718,7.513 L 8.559,1.688 C 8.367,0.722 7.445,-0.035 6.46,-0.035 H 0.358 C 0.236,-0.035 0.116,-0.023 0,0"
       style="fill:#000000;fill-opacity:1;fill-rule:nonzero;stroke:none"
       transform="matrix(1.3333333,0,0,-1.3333333,426.72907,93.120267)" />
    <path
       id="path786"
       d="m 0,0 c -0.127,-0.641 -0.766,-1.165 -1.42,-1.165 h -6.102 c -0.653,0 -1.083,0.524 -0.956,1.165 l 1.159,5.825 C -7.192,6.466 -6.553,6.99 -5.9,6.99 h 6.103 c 0.653,0 1.083,-0.524 0.956,-1.165 z"
       style="fill:#dc63a0;fill-opacity:1;fill-rule:nonzero;stroke:none"
       transform="matrix(1.3333333,0,0,-1.3333333,437.2348,90.689467)" />
    <path
       id="path787"
       d="m 0,0 c -0.213,0.042 -0.21,0.224 -0.189,0.329 l 1.158,5.825 c 0.064,0.318 0.416,0.607 0.74,0.607 H 7.811 C 7.842,6.761 7.872,6.758 7.898,6.753 8.112,6.711 8.109,6.529 8.088,6.424 L 6.929,0.599 C 6.866,0.281 6.513,-0.008 6.189,-0.008 H 0.087 C 0.056,-0.008 0.027,-0.005 0,0"
       style="fill:#eeb2cf;fill-opacity:1;fill-rule:nonzero;stroke:none"
       transform="matrix(1.3333333,0,0,-1.3333333,427.08947,91.308)" />
    <path
       id="path788"
       d="m 0,0 c 0.27,0.112 0.584,0.306 0.921,0.643 1.002,1.002 0.76,1.814 0.76,1.814 0,0 -0.812,0.242 -1.814,-0.76 C -0.636,1.194 -0.826,0.739 -0.89,0.41 c -0.064,0.329 -0.253,0.784 -0.756,1.287 -1.002,1.002 -1.814,0.76 -1.814,0.76 0,0 -0.242,-0.812 0.76,-1.814 C -2.363,0.306 -2.049,0.112 -1.779,0 -1.897,-0.077 -2.022,-0.177 -2.152,-0.307 -2.856,-1.01 -2.686,-1.581 -2.686,-1.581 c 0,0 0.57,-0.169 1.274,0.534 0.335,0.335 0.471,0.639 0.522,0.866 0.052,-0.227 0.188,-0.531 0.523,-0.866 0.704,-0.703 1.274,-0.534 1.274,-0.534 0,0 0.17,0.571 -0.534,1.274 C 0.243,-0.177 0.118,-0.077 0,0"
       style="fill:#b93464;fill-opacity:1;fill-rule:nonzero;stroke:none"
       transform="matrix(1.3333333,0,0,-1.3333333,433.54133,87.6976)" />
  </g>
</svg>
