<?xml version="1.0" encoding="UTF-8" standalone="no"?>
<!-- Created with Inkscape (http://www.inkscape.org/) -->

<svg
   version="1.1"
   id="svg1"
   width="100%"
   height="100%"
   viewBox="0 0 14.756234 12.721333"
   xmlns:xlink="http://www.w3.org/1999/xlink"
   xmlns="http://www.w3.org/2000/svg"
   xmlns:svg="http://www.w3.org/2000/svg">
  <defs
     id="defs1">
  </defs>
  <g
     id="g1"
     transform="translate(-367.80308,-80.445601)">
    <path
       id="path865"
       d="m 0,0 c -0.915,0.182 -1.464,1.024 -1.278,1.958 l 1.159,5.826 C 0.073,8.749 0.995,9.506 1.98,9.506 H 8.082 C 8.203,9.506 8.323,9.495 8.439,9.472 9.354,9.29 9.903,8.448 9.717,7.513 L 8.559,1.688 C 8.367,0.722 7.445,-0.035 6.46,-0.035 H 0.357 C 0.236,-0.035 0.116,-0.023 0,0"
       style="fill:#000000;fill-opacity:1;fill-rule:nonzero;stroke:none"
       transform="matrix(1.3333333,0,0,-1.3333333,369.5552,93.120267)" />
    <path
       id="path866"
       d="m 0,0 c -0.127,-0.641 -0.766,-1.165 -1.42,-1.165 h -6.102 c -0.653,0 -1.083,0.524 -0.956,1.165 l 1.159,5.825 C -7.192,6.466 -6.553,6.99 -5.9,6.99 h 6.103 c 0.653,0 1.083,-0.524 0.956,-1.165 z"
       style="fill:#c785b7;fill-opacity:1;fill-rule:nonzero;stroke:none"
       transform="matrix(1.3333333,0,0,-1.3333333,380.06093,90.6892)" />
    <path
       id="path867"
       d="m 0,0 c -0.213,0.042 -0.21,0.224 -0.189,0.329 l 1.158,5.825 c 0.064,0.318 0.416,0.607 0.74,0.607 H 7.811 C 7.842,6.761 7.872,6.759 7.899,6.753 8.112,6.711 8.109,6.529 8.088,6.424 L 6.929,0.599 C 6.866,0.281 6.513,-0.008 6.189,-0.008 H 0.087 C 0.056,-0.008 0.027,-0.005 0,0"
       style="fill:#992a76;fill-opacity:1;fill-rule:nonzero;stroke:none"
       transform="matrix(1.3333333,0,0,-1.3333333,369.91573,91.308)" />
    <path
       id="path868"
       d="M 0,0 C -0.702,-0.181 -1.437,-0.124 -2.067,0.281 -2.691,0.682 -3.093,1.282 -3.198,1.969 -3.289,2.565 -3.14,3.2 -2.79,3.714 -2.403,4.28 -1.819,4.633 -1.144,4.706 0.09,4.84 1.203,4.017 1.397,2.968 1.553,2.122 1.133,1.016 -0.233,0.867 -1.103,0.773 -1.946,1.397 -2.073,2.23 -2.178,2.921 -1.655,3.571 -0.931,3.649 -0.598,3.686 -0.243,3.589 0.017,3.392 0.249,3.217 0.39,2.975 0.416,2.71 0.44,2.466 0.36,2.186 0.151,2.011 -0.32,1.617 -0.745,2.006 -0.745,2.006 -0.614,2.007 -0.359,2.042 -0.21,2.237 0.039,2.56 -0.16,2.838 -0.341,2.982 -0.475,3.089 -0.673,3.138 -0.85,3.119 -1.258,3.075 -1.562,2.688 -1.502,2.291 -1.42,1.755 -0.865,1.338 -0.314,1.397 0.702,1.508 0.965,2.304 0.826,2.906 0.655,3.65 -0.154,4.275 -1.063,4.176 -1.566,4.121 -2.003,3.854 -2.3,3.421 -2.58,3.01 -2.7,2.504 -2.627,2.031 -2.546,1.497 -2.233,1.03 -1.746,0.717 -1.252,0.4 -0.625,0.268 -0.074,0.39 0.553,0.528 1.136,0.913 1.463,1.5 1.35,0.773 0.61,0.157 0,0"
       style="fill:#d892bd;fill-opacity:1;fill-rule:nonzero;stroke:none"
       transform="matrix(1.3333333,0,0,-1.3333333,376.2608,89.9196)" />
  </g>
</svg>
