<?xml version="1.0" encoding="UTF-8" standalone="no"?>
<!-- Created with Inkscape (http://www.inkscape.org/) -->

<svg
   version="1.1"
   id="svg1"
   width="100%"
   height="100%"
   viewBox="0 0 14.756233 12.721333"
   xmlns:xlink="http://www.w3.org/1999/xlink"
   xmlns="http://www.w3.org/2000/svg"
   xmlns:svg="http://www.w3.org/2000/svg">
  <defs
     id="defs1">
  </defs>
  <g
     id="g1"
     transform="translate(-158.16575,-80.445601)">
    <path
       id="path790"
       d="M 0,0 C -0.915,0.182 -1.464,1.024 -1.278,1.958 L -0.12,7.784 C 0.073,8.75 0.995,9.506 1.98,9.506 H 8.082 C 8.203,9.506 8.323,9.495 8.439,9.472 9.354,9.29 9.903,8.448 9.717,7.513 L 8.559,1.688 C 8.367,0.722 7.444,-0.035 6.459,-0.035 H 0.357 C 0.236,-0.035 0.116,-0.023 0,0"
       style="fill:#000000;fill-opacity:1;fill-rule:nonzero;stroke:none"
       transform="matrix(1.3333333,0,0,-1.3333333,159.91787,93.120267)" />
    <path
       id="path791"
       d="m 0,0 c -0.127,-0.641 -0.766,-1.165 -1.42,-1.165 h -6.102 c -0.653,0 -1.083,0.524 -0.956,1.165 l 1.159,5.825 C -7.192,6.466 -6.553,6.99 -5.9,6.99 h 6.103 c 0.653,0 1.083,-0.524 0.956,-1.165 z"
       style="fill:#c26b42;fill-opacity:1;fill-rule:nonzero;stroke:none"
       transform="matrix(1.3333333,0,0,-1.3333333,170.42333,90.689333)" />
    <path
       id="path792"
       d="m 0,0 c -0.213,0.042 -0.21,0.224 -0.189,0.329 l 1.158,5.825 c 0.064,0.318 0.416,0.607 0.74,0.607 h 6.102 c 0.031,0 0.06,-0.002 0.087,-0.008 C 8.112,6.711 8.109,6.529 8.088,6.424 L 6.929,0.599 C 6.866,0.281 6.513,-0.008 6.189,-0.008 H 0.087 C 0.056,-0.008 0.027,-0.005 0,0"
       style="fill:#d8a68b;fill-opacity:1;fill-rule:nonzero;stroke:none"
       transform="matrix(1.3333333,0,0,-1.3333333,160.2784,91.308)" />
    <path
       id="path793"
       d="m 0,0 0.65,-0.521 c 0.148,-0.119 0.364,-0.094 0.483,0.054 0.118,0.148 0.095,0.364 -0.054,0.483 L 0,0.881 -0.866,0.188 -1.732,0.881 -2.598,0.188 -3.465,0.88 -4.547,0.016 c -0.148,-0.118 -0.172,-0.335 -0.054,-0.483 0.118,-0.148 0.335,-0.173 0.483,-0.054 L -3.465,0 -2.597,-0.693 -1.732,0 -0.866,-0.693 Z m -0.866,-2.488 -0.866,0.693 -0.865,-0.693 -0.868,0.693 -0.653,-0.521 c -0.148,-0.119 -0.365,-0.094 -0.483,0.054 -0.118,0.148 -0.094,0.365 0.054,0.483 l 1.082,0.864 0.867,-0.692 0.866,0.693 0.866,-0.693 L 0,-0.914 1.079,-1.779 C 1.228,-1.898 1.251,-2.114 1.133,-2.263 1.014,-2.411 0.798,-2.435 0.65,-2.316 L 0,-1.795 Z"
       style="fill:#8c4d2b;fill-opacity:1;fill-rule:nonzero;stroke:none"
       transform="matrix(1.3333333,0,0,-1.3333333,167.85573,85.708933)" />
  </g>
</svg>
