<?xml version="1.0" encoding="UTF-8" standalone="no"?>
<!-- Created with Inkscape (http://www.inkscape.org/) -->

<svg
   version="1.1"
   id="svg1"
   width="100%"
   height="100%"
   viewBox="0 0 14.756234 12.721333"
   xmlns:xlink="http://www.w3.org/1999/xlink"
   xmlns="http://www.w3.org/2000/svg"
   xmlns:svg="http://www.w3.org/2000/svg">
  <defs
     id="defs1">
  </defs>
  <g
     id="g1"
     transform="translate(-405.91921,-80.445601)">
    <path
       id="path840"
       d="M 0,0 C -0.915,0.182 -1.464,1.024 -1.278,1.958 L -0.12,7.784 C 0.073,8.75 0.995,9.506 1.98,9.506 H 8.082 C 8.203,9.506 8.323,9.494 8.439,9.471 9.354,9.289 9.903,8.448 9.717,7.513 L 8.559,1.688 C 8.367,0.722 7.445,-0.035 6.46,-0.035 H 0.357 C 0.236,-0.035 0.116,-0.023 0,0"
       style="fill:#000000;fill-opacity:1;fill-rule:nonzero;stroke:none"
       transform="matrix(1.3333333,0,0,-1.3333333,407.67133,93.120267)" />
    <path
       id="path841"
       d="m 0,0 c -0.127,-0.641 -0.766,-1.165 -1.42,-1.165 h -6.102 c -0.653,0 -1.083,0.524 -0.956,1.165 l 1.159,5.825 C -7.192,6.466 -6.553,6.99 -5.9,6.99 h 6.103 c 0.653,0 1.083,-0.524 0.956,-1.165 z"
       style="fill:#5d546c;fill-opacity:1;fill-rule:nonzero;stroke:none"
       transform="matrix(1.3333333,0,0,-1.3333333,418.1768,90.689333)" />
    <path
       id="path842"
       d="m 0,0 c -0.213,0.042 -0.21,0.224 -0.189,0.329 l 1.158,5.825 c 0.064,0.318 0.416,0.607 0.74,0.607 H 7.811 C 7.842,6.761 7.872,6.758 7.899,6.753 8.112,6.711 8.109,6.529 8.088,6.424 L 6.929,0.599 C 6.866,0.281 6.513,-0.008 6.189,-0.008 H 0.087 C 0.056,-0.008 0.027,-0.005 0,0"
       style="fill:#cfcbd2;fill-opacity:1;fill-rule:nonzero;stroke:none"
       transform="matrix(1.3333333,0,0,-1.3333333,408.03173,91.308)" />
    <path
       id="path843"
       d="m 0,0 c 0.058,-0.174 0.091,-0.359 0.091,-0.552 0,-0.957 -0.775,-1.732 -1.732,-1.732 -0.957,0 -1.732,0.775 -1.732,1.732 0,0.193 0.033,0.378 0.091,0.552 -0.455,-0.434 -0.741,-1.045 -0.741,-1.724 0,-1.315 1.067,-2.381 2.382,-2.381 1.316,0 2.382,1.066 2.382,2.381 C 0.741,-1.045 0.456,-0.434 0,0"
       style="fill:#3f3c56;fill-opacity:1;fill-rule:nonzero;stroke:none"
       transform="matrix(1.3333333,0,0,-1.3333333,415.4852,84.507733)" />
  </g>
</svg>
