<?xml version="1.0" encoding="UTF-8" standalone="no"?>
<!-- Created with Inkscape (http://www.inkscape.org/) -->

<svg
   version="1.1"
   id="svg1"
   width="100%"
   height="100%"
   viewBox="0 0 14.75711 12.721333"
   xmlns:xlink="http://www.w3.org/1999/xlink"
   xmlns="http://www.w3.org/2000/svg"
   xmlns:svg="http://www.w3.org/2000/svg">
  <defs
     id="defs1">
  </defs>
  <g
     id="g1"
     transform="translate(-120.04961,-80.445601)">
    <path
       id="path800"
       d="m 0,0 c -0.915,0.182 -1.464,1.024 -1.278,1.958 l 1.159,5.825 C 0.073,8.749 0.995,9.506 1.98,9.506 H 8.082 C 8.203,9.506 8.323,9.494 8.439,9.471 9.354,9.289 9.903,8.448 9.718,7.513 L 8.559,1.688 C 8.367,0.722 7.445,-0.035 6.46,-0.035 H 0.358 C 0.236,-0.035 0.116,-0.023 0,0"
       style="fill:#000000;fill-opacity:1;fill-rule:nonzero;stroke:none"
       transform="matrix(1.3333333,0,0,-1.3333333,121.80173,93.120267)" />
    <path
       id="path801"
       d="m 0,0 c -0.127,-0.641 -0.766,-1.165 -1.42,-1.165 h -6.102 c -0.653,0 -1.083,0.524 -0.956,1.165 l 1.159,5.825 C -7.192,6.466 -6.553,6.99 -5.9,6.99 h 6.103 c 0.653,0 1.083,-0.524 0.956,-1.165 z"
       style="fill:#d33331;fill-opacity:1;fill-rule:nonzero;stroke:none"
       transform="matrix(1.3333333,0,0,-1.3333333,132.30747,90.689467)" />
    <path
       id="path802"
       d="m 0,0 c -0.213,0.042 -0.21,0.224 -0.189,0.329 l 1.158,5.825 c 0.064,0.318 0.416,0.607 0.74,0.607 h 6.102 c 0.031,0 0.06,-0.003 0.087,-0.008 C 8.112,6.711 8.109,6.529 8.088,6.424 L 6.929,0.599 C 6.866,0.281 6.513,-0.008 6.189,-0.008 H 0.087 C 0.056,-0.008 0.027,-0.005 0,0"
       style="fill:#6c2b2f;fill-opacity:1;fill-rule:nonzero;stroke:none"
       transform="matrix(1.3333333,0,0,-1.3333333,122.16227,91.308)" />
    <path
       id="path803"
       d="m 0,0 -1.028,0.181 c -0.259,0.046 -0.506,-0.127 -0.552,-0.386 -0.046,-0.259 0.127,-0.506 0.386,-0.552 l 1.029,-0.181 C 0.094,-0.984 0.341,-0.811 0.386,-0.552 0.432,-0.293 0.259,-0.046 0,0 M 2.976,1.179 2.74,-0.162 C 2.664,-0.593 2.253,-0.881 1.822,-0.805 L 1.778,-0.797 2.109,1.243 1.825,1.293 1.438,-0.737 0.724,-0.611 1.055,1.428 0.771,1.478 0.486,-0.021 C 0.385,0.092 0.25,0.176 0.09,0.204 L -0.218,0.258 0.002,1.614 -0.283,1.664 -0.54,0.315 -1.363,0.46 c 10e-4,0.033 10e-4,0.066 0.007,0.1 l 0.237,1.341 c 0.076,0.431 0.486,0.718 0.917,0.642 L 2.334,2.096 C 2.764,2.02 3.052,1.61 2.976,1.179"
       style="fill:#e08c8b;fill-opacity:1;fill-rule:nonzero;stroke:none"
       transform="matrix(1.3333333,0,0,-1.3333333,126.5916,87.7188)" />
  </g>
</svg>
