<?xml version="1.0" encoding="UTF-8" standalone="no"?>
<!-- Created with Inkscape (http://www.inkscape.org/) -->

<svg
   version="1.1"
   id="svg1"
   width="100%"
   height="100%"
   viewBox="0 0 14.756233 12.721333"
   xmlns:xlink="http://www.w3.org/1999/xlink"
   xmlns="http://www.w3.org/2000/svg"
   xmlns:svg="http://www.w3.org/2000/svg">
  <defs
     id="defs1">
  </defs>
  <g
     id="g1"
     transform="translate(-272.51335,-80.445601)">
    <path
       id="path825"
       d="m 0,0 c -0.915,0.182 -1.464,1.024 -1.278,1.958 l 1.159,5.825 C 0.073,8.749 0.995,9.506 1.98,9.506 H 8.082 C 8.203,9.506 8.323,9.495 8.439,9.472 9.354,9.29 9.903,8.448 9.717,7.513 L 8.559,1.688 C 8.367,0.722 7.445,-0.035 6.46,-0.035 H 0.357 C 0.236,-0.035 0.116,-0.023 0,0"
       style="fill:#000000;fill-opacity:1;fill-rule:nonzero;stroke:none"
       transform="matrix(1.3333333,0,0,-1.3333333,274.26547,93.120267)" />
    <path
       id="path826"
       d="m 0,0 c -0.127,-0.641 -0.766,-1.165 -1.42,-1.165 h -6.102 c -0.653,0 -1.083,0.524 -0.956,1.165 l 1.159,5.825 C -7.192,6.466 -6.553,6.99 -5.9,6.99 h 6.103 c 0.653,0 1.083,-0.524 0.956,-1.165 z"
       style="fill:#da633f;fill-opacity:1;fill-rule:nonzero;stroke:none"
       transform="matrix(1.3333333,0,0,-1.3333333,284.77107,90.689333)" />
    <path
       id="path827"
       d="m 0,0 c -0.213,0.042 -0.21,0.224 -0.189,0.329 l 1.158,5.825 c 0.064,0.318 0.416,0.607 0.74,0.607 H 7.811 C 7.842,6.761 7.872,6.759 7.899,6.753 8.112,6.711 8.109,6.529 8.088,6.424 L 6.929,0.599 C 6.866,0.281 6.513,-0.008 6.189,-0.008 H 0.087 C 0.056,-0.008 0.027,-0.005 0,0"
       style="fill:#e9ad49;fill-opacity:1;fill-rule:nonzero;stroke:none"
       transform="matrix(1.3333333,0,0,-1.3333333,274.626,91.308)" />
    <path
       id="path828"
       d="m 0,0 c 0.066,-0.307 0.132,-0.589 -0.019,-0.782 -0.133,-0.188 -0.423,-0.231 -0.63,-0.065 -0.228,0.182 -0.141,0.58 0.047,0.985 0.308,0.663 -0.167,1.344 -0.781,1.316 0.16,-0.313 0.047,-0.662 -0.254,-0.902 -0.875,-0.696 -1.534,-1.601 -1.534,-2.93 0,-0.815 0.493,-1.517 1.202,-1.84 -0.284,0.269 -0.468,0.669 -0.468,1.121 0,0.39 0.136,0.742 0.353,1.004 0.082,-0.627 0.551,-1.109 1.124,-1.109 0.429,0 0.798,0.273 0.993,0.671 0.064,-0.174 0.1,-0.365 0.1,-0.566 0,-0.496 -0.218,-0.933 -0.55,-1.197 0.812,0.275 1.395,1.028 1.395,1.916 C 0.978,-1.049 0.47,-0.193 0,0"
       style="fill:#c2351f;fill-opacity:1;fill-rule:nonzero;stroke:none"
       transform="matrix(1.3333333,0,0,-1.3333333,281.35333,84.735867)" />
  </g>
</svg>
