<?xml version="1.0" encoding="UTF-8" standalone="no"?>
<!-- Created with Inkscape (http://www.inkscape.org/) -->

<svg
   version="1.1"
   id="svg1"
   width="100%"
   height="100%"
   viewBox="0 0 14.756233 12.721333"
   xmlns:xlink="http://www.w3.org/1999/xlink"
   xmlns="http://www.w3.org/2000/svg"
   xmlns:svg="http://www.w3.org/2000/svg">
  <defs
     id="defs1">
  </defs>
  <g
     id="g1"
     transform="translate(-177.22361,-80.445601)">
    <path
       id="path870"
       d="m 0,0 c -0.915,0.182 -1.464,1.024 -1.278,1.958 l 1.159,5.825 C 0.073,8.749 0.995,9.506 1.98,9.506 H 8.082 C 8.203,9.506 8.323,9.495 8.439,9.472 9.354,9.29 9.903,8.448 9.717,7.513 L 8.559,1.688 C 8.367,0.722 7.445,-0.035 6.46,-0.035 H 0.357 C 0.236,-0.035 0.116,-0.023 0,0"
       style="fill:#000000;fill-opacity:1;fill-rule:nonzero;stroke:none"
       transform="matrix(1.3333333,0,0,-1.3333333,178.97573,93.120267)" />
    <path
       id="path871"
       d="m 0,0 c -0.127,-0.641 -0.766,-1.165 -1.42,-1.165 h -6.102 c -0.653,0 -1.083,0.524 -0.956,1.165 l 1.159,5.825 C -7.192,6.466 -6.553,6.99 -5.9,6.99 h 6.103 c 0.653,0 1.083,-0.524 0.956,-1.165 z"
       style="fill:#7a96cd;fill-opacity:1;fill-rule:nonzero;stroke:none"
       transform="matrix(1.3333333,0,0,-1.3333333,189.48133,90.689333)" />
    <path
       id="path872"
       d="m 0,0 c -0.213,0.042 -0.21,0.224 -0.189,0.329 l 1.158,5.825 c 0.064,0.318 0.416,0.607 0.74,0.607 H 7.811 C 7.842,6.761 7.872,6.759 7.899,6.753 8.112,6.711 8.109,6.529 8.088,6.424 L 6.929,0.599 C 6.866,0.281 6.513,-0.008 6.189,-0.008 H 0.087 C 0.056,-0.008 0.027,-0.005 0,0"
       style="fill:#406ab3;fill-opacity:1;fill-rule:nonzero;stroke:none"
       transform="matrix(1.3333333,0,0,-1.3333333,179.33627,91.308)" />
    <path
       id="path873"
       d="M 0,0 -2.804,-0.494 C -2.923,-0.516 -3.03,-0.583 -3.1,-0.683 L -4.792,-3.1 c -0.145,-0.207 -0.095,-0.493 0.113,-0.638 0.103,-0.073 0.227,-0.096 0.342,-0.076 0.116,0.02 0.223,0.085 0.296,0.189 l 1.583,2.261 1.714,0.302 C -0.245,-0.974 0.088,-0.499 0,0 m -2.142,-1.66 -0.495,-0.708 1.629,0.287 c 0.333,0.059 0.554,0.376 0.496,0.708 l -0.602,-0.106 z m 0.422,-0.898 0.602,0.106 C -1.06,-2.784 -1.281,-3.101 -1.614,-3.16 l -1.8,-0.317 0.496,0.707 z"
       style="fill:#b4d0eb;fill-opacity:1;fill-rule:nonzero;stroke:none"
       transform="matrix(1.3333333,0,0,-1.3333333,187.7772,84.1608)" />
  </g>
</svg>
