<?xml version="1.0" encoding="UTF-8" standalone="no"?>
<!-- Created with Inkscape (http://www.inkscape.org/) -->

<svg
   version="1.1"
   id="svg1"
   width="100%"
   height="100%"
   viewBox="0 0 14.75711 12.721333"
   xmlns:xlink="http://www.w3.org/1999/xlink"
   xmlns="http://www.w3.org/2000/svg"
   xmlns:svg="http://www.w3.org/2000/svg">
  <defs
     id="defs1">
  </defs>
  <g
     id="g1"
     transform="translate(-234.39735,-80.445601)">
    <path
       id="path850"
       d="m 0,0 c -0.915,0.182 -1.464,1.024 -1.278,1.958 l 1.159,5.825 C 0.073,8.749 0.995,9.506 1.98,9.506 H 8.082 C 8.203,9.506 8.323,9.494 8.439,9.471 9.354,9.289 9.903,8.448 9.718,7.513 L 8.559,1.688 C 8.367,0.722 7.445,-0.035 6.46,-0.035 H 0.358 C 0.236,-0.035 0.116,-0.023 0,0"
       style="fill:#000000;fill-opacity:1;fill-rule:nonzero;stroke:none"
       transform="matrix(1.3333333,0,0,-1.3333333,236.14947,93.120267)" />
    <path
       id="path851"
       d="m 0,0 c -0.127,-0.641 -0.766,-1.165 -1.42,-1.165 h -6.102 c -0.653,0 -1.083,0.524 -0.956,1.165 l 1.159,5.825 C -7.192,6.466 -6.553,6.99 -5.9,6.99 h 6.103 c 0.653,0 1.083,-0.524 0.956,-1.165 z"
       style="fill:#6f5fa7;fill-opacity:1;fill-rule:nonzero;stroke:none"
       transform="matrix(1.3333333,0,0,-1.3333333,246.6552,90.689467)" />
    <path
       id="path852"
       d="m 0,0 c -0.213,0.042 -0.21,0.224 -0.189,0.329 l 1.158,5.825 c 0.064,0.318 0.416,0.607 0.74,0.607 H 7.811 C 7.842,6.761 7.872,6.758 7.898,6.753 8.112,6.711 8.109,6.529 8.088,6.424 L 6.929,0.599 C 6.866,0.281 6.513,-0.008 6.189,-0.008 H 0.087 C 0.056,-0.008 0.027,-0.005 0,0"
       style="fill:#362b72;fill-opacity:1;fill-rule:nonzero;stroke:none"
       transform="matrix(1.3333333,0,0,-1.3333333,236.51,91.308)" />
    <path
       id="path853"
       d="m 0,0 c 0.242,-0.035 0.478,-0.306 0.535,-0.607 -0.153,0.139 -0.418,0.276 -0.582,0.305 -0.163,0.029 -0.459,-0.114 -0.664,-0.272 -0.1,0.316 -0.086,0.748 0.094,0.988 0.136,0.182 0.356,0.261 0.56,0.268 C 0.302,0.694 0.468,0.477 0.573,0.329 0.344,0.453 0.172,0.496 -0.037,0.468 -0.236,0.432 -0.31,0.366 -0.391,0.257 -0.465,0.158 -0.505,-0.013 -0.515,-0.149 -0.383,-0.056 -0.203,0.029 0,0 m -0.429,1.766 c 0.179,0 0.324,-0.145 0.324,-0.325 0,-0.179 -0.145,-0.324 -0.324,-0.324 -0.18,0 -0.325,0.145 -0.325,0.324 0,0.18 0.145,0.325 0.325,0.325 m -1.49,-0.649 c -0.179,0 -0.325,0.145 -0.325,0.324 0,0.18 0.146,0.325 0.325,0.325 0.179,0 0.325,-0.145 0.325,-0.325 0,-0.179 -0.146,-0.324 -0.325,-0.324 M 0.865,-1.104 C 0.693,-0.742 0.933,-0.285 1.019,0.562 1.155,1.626 0.488,2.602 -0.564,2.802 -1.615,3.002 -2.685,2.35 -2.958,1.203 -3.01,0.985 -3.04,0.775 -3.056,0.572 -3.108,0.582 -3.162,0.589 -3.218,0.587 -3.6,0.574 -3.9,0.109 -3.764,-0.423 c 0.164,0.191 0.354,0.336 0.601,0.3 0.042,-0.006 0.089,-0.039 0.136,-0.082 0.061,-0.381 0.189,-0.717 0.369,-0.995 0.383,-0.587 1.108,-0.963 1.98,-1.037 0.807,-0.07 1.925,0.218 2.185,0.901 -0.383,-0.096 -0.543,0.025 -0.642,0.232"
       style="fill:#d9d2e9;fill-opacity:1;fill-rule:nonzero;stroke:none"
       transform="matrix(1.3333333,0,0,-1.3333333,242.95347,87.2264)" />
  </g>
</svg>
