<?xml version="1.0" encoding="UTF-8" standalone="no"?>
<!-- Created with Inkscape (http://www.inkscape.org/) -->

<svg
   version="1.1"
   id="svg1"
   width="100%"
   height="100%"
   viewBox="0 0 14.756234 12.721333"
   xmlns:xlink="http://www.w3.org/1999/xlink"
   xmlns="http://www.w3.org/2000/svg"
   xmlns:svg="http://www.w3.org/2000/svg">
  <defs
     id="defs1">
  </defs>
  <g
     id="g1"
     transform="translate(-291.57135,-80.445601)">
    <path
       id="path820"
       d="m 0,0 c -0.915,0.182 -1.464,1.024 -1.278,1.958 l 1.159,5.826 C 0.073,8.749 0.995,9.506 1.98,9.506 H 8.082 C 8.203,9.506 8.323,9.495 8.439,9.472 9.354,9.29 9.903,8.448 9.717,7.513 L 8.559,1.688 C 8.367,0.722 7.445,-0.035 6.46,-0.035 H 0.357 C 0.236,-0.035 0.116,-0.023 0,0"
       style="fill:#000000;fill-opacity:1;fill-rule:nonzero;stroke:none"
       transform="matrix(1.3333333,0,0,-1.3333333,293.32347,93.120267)" />
    <path
       id="path821"
       d="m 0,0 c -0.127,-0.641 -0.766,-1.165 -1.42,-1.165 h -6.102 c -0.653,0 -1.083,0.524 -0.956,1.165 l 1.159,5.825 C -7.192,6.466 -6.553,6.99 -5.9,6.99 h 6.103 c 0.653,0 1.083,-0.524 0.956,-1.165 z"
       style="fill:#0583c8;fill-opacity:1;fill-rule:nonzero;stroke:none"
       transform="matrix(1.3333333,0,0,-1.3333333,303.82907,90.689333)" />
    <path
       id="path822"
       d="m 0,0 c -0.213,0.042 -0.21,0.224 -0.189,0.329 l 1.158,5.825 c 0.064,0.318 0.416,0.607 0.74,0.607 h 6.102 c 0.031,0 0.06,-0.002 0.087,-0.008 C 8.112,6.711 8.109,6.529 8.088,6.424 L 6.929,0.599 C 6.866,0.281 6.513,-0.008 6.189,-0.008 H 0.087 C 0.056,-0.008 0.027,-0.005 0,0"
       style="fill:#b9def4;fill-opacity:1;fill-rule:nonzero;stroke:none"
       transform="matrix(1.3333333,0,0,-1.3333333,293.68387,91.308)" />
    <path
       id="path823"
       d="m 0,0 c -0.274,0 -0.539,0.074 -0.786,0.219 -0.072,0.042 -0.104,0.129 -0.076,0.208 0.025,0.069 0.091,0.114 0.163,0.114 0.009,0 0.018,0 0.028,-0.002 0.065,-0.01 0.131,-0.015 0.2,-0.015 0.455,0 0.938,0.22 1.322,0.604 0.155,0.156 0.287,0.332 0.39,0.524 0.031,0.058 0.09,0.092 0.153,0.092 0.014,0 0.028,-0.002 0.042,-0.006 C 1.513,1.719 1.567,1.65 1.567,1.57 1.567,0.703 0.864,0 0,0 m 0,5.167 c -1.294,-1.39 -2.044,-2.471 -2.044,-3.6 0,-1.129 0.915,-2.043 2.044,-2.043 1.129,0 2.044,0.914 2.044,2.043 0,1.129 -0.75,2.21 -2.044,3.6"
       style="fill:#2268b3;fill-opacity:1;fill-rule:nonzero;stroke:none"
       transform="matrix(1.3333333,0,0,-1.3333333,298.9496,89.932933)" />
  </g>
</svg>
