<?xml version="1.0" encoding="UTF-8" standalone="no"?>
<!-- Created with Inkscape (http://www.inkscape.org/) -->

<svg
   version="1.1"
   id="svg1"
   width="100%"
   height="100%"
   viewBox="0 0 14.757111 12.721333"
   xmlns:xlink="http://www.w3.org/1999/xlink"
   xmlns="http://www.w3.org/2000/svg"
   xmlns:svg="http://www.w3.org/2000/svg">
  <defs
     id="defs1">
  </defs>
  <g
     id="g1"
     transform="translate(-329.68721,-80.445601)">
    <path
       id="path810"
       d="m 0,0 c -0.915,0.182 -1.464,1.024 -1.278,1.958 l 1.159,5.825 C 0.073,8.749 0.995,9.506 1.98,9.506 H 8.082 C 8.203,9.506 8.324,9.494 8.439,9.471 9.354,9.29 9.903,8.448 9.718,7.513 L 8.559,1.688 C 8.367,0.722 7.445,-0.035 6.46,-0.035 H 0.358 C 0.236,-0.035 0.116,-0.023 0,0"
       style="fill:#000000;fill-opacity:1;fill-rule:nonzero;stroke:none"
       transform="matrix(1.3333333,0,0,-1.3333333,331.43933,93.120267)" />
    <path
       id="path811"
       d="m 0,0 c -0.127,-0.641 -0.766,-1.165 -1.42,-1.165 h -6.102 c -0.653,0 -1.083,0.524 -0.956,1.165 l 1.159,5.825 C -7.192,6.466 -6.553,6.99 -5.9,6.99 h 6.103 c 0.653,0 1.083,-0.524 0.956,-1.165 z"
       style="fill:#64b55c;fill-opacity:1;fill-rule:nonzero;stroke:none"
       transform="matrix(1.3333333,0,0,-1.3333333,341.94493,90.689467)" />
    <path
       id="path812"
       d="m 0,0 c -0.213,0.042 -0.21,0.224 -0.189,0.329 l 1.158,5.825 c 0.064,0.318 0.416,0.607 0.74,0.607 H 7.811 C 7.842,6.761 7.872,6.758 7.899,6.753 8.112,6.711 8.109,6.529 8.088,6.424 L 6.929,0.599 C 6.866,0.281 6.513,-0.008 6.189,-0.008 H 0.087 C 0.056,-0.008 0.027,-0.005 0,0"
       style="fill:#19833b;fill-opacity:1;fill-rule:nonzero;stroke:none"
       transform="matrix(1.3333333,0,0,-1.3333333,331.79973,91.308)" />
    <path
       id="path813"
       d="m 0,0 0.007,-0.234 h -0.869 l -0.713,-0.719 0.862,-0.063 0.015,-0.229 h -1.165 l -0.383,-0.387 -0.216,0.216 0.387,0.383 v 1.166 l 0.229,-0.015 0.062,-0.862 0.719,0.712 V 0.837 L -0.83,0.83 -0.776,0.254 0,1.022 0.192,0.83 -0.577,0.054 Z m 0.881,1.712 c 0,0 -2.099,0.579 -3.334,-0.655 -0.805,-0.806 -0.965,-1.973 -0.418,-2.732 l -0.485,-0.418 0.432,-0.432 0.419,0.484 c 0.759,-0.546 1.926,-0.386 2.731,0.419 1.235,1.234 0.655,3.334 0.655,3.334"
       style="fill:#9acc84;fill-opacity:1;fill-rule:nonzero;stroke:none"
       transform="matrix(1.3333333,0,0,-1.3333333,338.5712,86.4076)" />
  </g>
</svg>
