<?xml version="1.0" encoding="UTF-8" standalone="no"?>
<!-- Created with Inkscape (http://www.inkscape.org/) -->

<svg
   version="1.1"
   id="svg1"
   width="100%"
   height="100%"
   viewBox="0 0 14.756233 12.721333"
   xmlns:xlink="http://www.w3.org/1999/xlink"
   xmlns="http://www.w3.org/2000/svg"
   xmlns:svg="http://www.w3.org/2000/svg">
  <defs
     id="defs1">
  </defs>
  <g
     id="g1"
     transform="translate(-196.28161,-80.445601)">
    <path
       id="path860"
       d="m 0,0 c -0.915,0.182 -1.464,1.024 -1.278,1.958 l 1.159,5.826 C 0.073,8.749 0.995,9.506 1.98,9.506 H 8.082 C 8.203,9.506 8.323,9.495 8.439,9.472 9.354,9.29 9.903,8.448 9.717,7.513 L 8.559,1.688 C 8.367,0.722 7.445,-0.035 6.46,-0.035 H 0.357 C 0.236,-0.035 0.116,-0.023 0,0"
       style="fill:#000000;fill-opacity:1;fill-rule:nonzero;stroke:none"
       transform="matrix(1.3333333,0,0,-1.3333333,198.03373,93.120267)" />
    <path
       id="path861"
       d="m 0,0 c -0.127,-0.641 -0.766,-1.165 -1.42,-1.165 h -6.102 c -0.653,0 -1.083,0.524 -0.956,1.165 l 1.159,5.825 C -7.192,6.466 -6.553,6.99 -5.9,6.99 h 6.103 c 0.653,0 1.083,-0.524 0.956,-1.165 z"
       style="fill:#86c024;fill-opacity:1;fill-rule:nonzero;stroke:none"
       transform="matrix(1.3333333,0,0,-1.3333333,208.5392,90.6892)" />
    <path
       id="path862"
       d="m 0,0 c -0.213,0.042 -0.21,0.224 -0.189,0.329 l 1.158,5.825 c 0.064,0.318 0.416,0.607 0.74,0.607 H 7.811 C 7.842,6.761 7.872,6.759 7.899,6.753 8.112,6.711 8.109,6.529 8.088,6.424 L 6.929,0.599 C 6.866,0.281 6.513,-0.008 6.189,-0.008 H 0.087 C 0.056,-0.008 0.027,-0.005 0,0"
       style="fill:#bed646;fill-opacity:1;fill-rule:nonzero;stroke:none"
       transform="matrix(1.3333333,0,0,-1.3333333,198.39413,91.308)" />
    <path
       id="path863"
       d="m 0,0 c 0,0.127 -0.103,0.229 -0.229,0.229 h -0.433 c -0.127,0 -0.23,-0.102 -0.23,-0.229 0,-0.127 0.103,-0.229 0.23,-0.229 h 0.433 C -0.103,-0.229 0,-0.127 0,0 m 0,-1.1 c 0,0.126 -0.103,0.229 -0.229,0.229 h -0.433 c -0.127,0 -0.23,-0.103 -0.23,-0.229 0,-0.127 0.103,-0.229 0.23,-0.229 h 0.433 C -0.103,-1.329 0,-1.227 0,-1.1 m 0,-1.1 c 0,0.126 -0.103,0.229 -0.229,0.229 h -0.433 c -0.127,0 -0.23,-0.103 -0.23,-0.229 0,-0.127 0.103,-0.23 0.23,-0.23 h 0.433 C -0.103,-2.43 0,-2.327 0,-2.2 M -4.366,0 c 0,0.127 -0.102,0.229 -0.229,0.229 h -0.433 c -0.127,0 -0.229,-0.102 -0.229,-0.229 0,-0.127 0.102,-0.229 0.229,-0.229 h 0.433 c 0.127,0 0.229,0.102 0.229,0.229 m 0,-1.1 c 0,0.126 -0.102,0.229 -0.229,0.229 h -0.433 c -0.127,0 -0.229,-0.103 -0.229,-0.229 0,-0.127 0.102,-0.229 0.229,-0.229 h 0.433 c 0.127,0 0.229,0.102 0.229,0.229 m 0,-1.1 c 0,0.126 -0.102,0.229 -0.229,0.229 h -0.433 c -0.127,0 -0.229,-0.103 -0.229,-0.229 0,-0.127 0.102,-0.23 0.229,-0.23 h 0.433 c 0.127,0 0.229,0.103 0.229,0.23 m 2.029,3.212 0.58,0.58 L -2.081,1.916 -2.629,1.368 -3.176,1.916 -3.5,1.592 -2.921,1.012 C -3.506,0.891 -3.961,0.418 -4.056,-0.177 h 2.854 c -0.095,0.595 -0.549,1.068 -1.135,1.189 m -1.742,-1.647 h 2.9 v -1.159 c 0,-0.801 -0.649,-1.451 -1.45,-1.451 -0.801,0 -1.45,0.65 -1.45,1.451 z"
       style="fill:#4b8c37;fill-opacity:1;fill-rule:nonzero;stroke:none"
       transform="matrix(1.3333333,0,0,-1.3333333,207.1648,85.6468)" />
  </g>
</svg>
